<svg width="804" height="167" viewBox="0 0 804 167" fill="none" xmlns="http://www.w3.org/2000/svg">
<g id="Frame 13">
<g id="Frame 12">
<path id="Vector 25" d="M48.4966 140.344L40.5452 23.6994L153.344 98.2009L105.458 98.2009L53.4365 42.6965L96.6429 100.887L48.4966 140.344Z" fill="white"/>
</g>
<path id="Warmbly" d="M252.124 117L234.244 37.8H253.084L264.844 102.24H266.164L280.084 37.8H302.044L315.964 102.24H317.404L329.164 37.8H347.044L328.924 117H304.804L291.364 52.56H290.284L276.844 117H252.124ZM369.125 118.68C365.605 118.68 362.485 118 359.765 116.64C357.045 115.2 354.925 113.16 353.405 110.52C351.885 107.88 351.125 104.6 351.125 100.68C351.125 97.24 351.765 94.36 353.045 92.04C354.405 89.72 356.365 87.84 358.925 86.4C361.485 84.96 364.645 83.76 368.405 82.8C372.165 81.84 376.445 81 381.245 80.28C383.805 79.88 385.885 79.52 387.485 79.2C389.165 78.8 390.405 78.2 391.205 77.4C392.005 76.52 392.405 75.28 392.405 73.68C392.405 71.44 391.605 69.52 390.005 67.92C388.405 66.32 385.885 65.52 382.445 65.52C380.125 65.52 377.965 65.92 375.965 66.72C374.045 67.52 372.365 68.72 370.925 70.32C369.565 71.92 368.565 73.96 367.925 76.44L352.685 71.76C353.645 68.48 355.005 65.64 356.765 63.24C358.605 60.84 360.805 58.84 363.365 57.24C365.925 55.56 368.845 54.32 372.125 53.52C375.405 52.72 378.965 52.32 382.805 52.32C388.965 52.32 393.965 53.32 397.805 55.32C401.725 57.24 404.645 60.28 406.565 64.44C408.485 68.52 409.445 73.8 409.445 80.28V91.08C409.445 93.88 409.485 96.72 409.565 99.6C409.725 102.48 409.885 105.4 410.045 108.36C410.285 111.24 410.525 114.12 410.765 117H395.525C395.205 115 394.885 112.72 394.565 110.16C394.325 107.52 394.125 104.88 393.965 102.24H391.805C390.685 105.28 389.085 108.04 387.005 110.52C384.925 113 382.365 115 379.325 116.52C376.365 117.96 372.965 118.68 369.125 118.68ZM376.445 106.2C377.965 106.2 379.485 105.92 381.005 105.36C382.605 104.8 384.125 104.04 385.565 103.08C387.085 102.04 388.445 100.76 389.645 99.24C390.925 97.72 391.965 96 392.765 94.08L392.525 84L395.285 84.6C393.845 85.64 392.165 86.48 390.245 87.12C388.325 87.68 386.325 88.12 384.245 88.44C382.245 88.76 380.245 89.12 378.245 89.52C376.245 89.92 374.445 90.44 372.845 91.08C371.325 91.72 370.085 92.6 369.125 93.72C368.245 94.76 367.805 96.24 367.805 98.16C367.805 100.64 368.605 102.6 370.205 104.04C371.805 105.48 373.885 106.2 376.445 106.2ZM424.561 117V86.52V54H438.841L438.961 75.48H441.241C441.881 70.12 442.961 65.76 444.481 62.4C446.081 59.04 448.281 56.56 451.081 54.96C453.881 53.36 457.361 52.56 461.521 52.56C462.241 52.56 463.001 52.6 463.801 52.68C464.681 52.68 465.681 52.8 466.801 53.04L466.081 71.4C464.881 70.84 463.561 70.44 462.121 70.2C460.681 69.96 459.401 69.84 458.281 69.84C455.161 69.84 452.481 70.56 450.241 72C448.001 73.44 446.161 75.52 444.721 78.24C443.361 80.88 442.441 84.12 441.961 87.96V117H424.561ZM476.592 117V76.68V54H490.392V72.84H492.672C493.792 68.2 495.272 64.4 497.112 61.44C498.952 58.4 501.152 56.12 503.712 54.6C506.352 53.08 509.432 52.32 512.952 52.32C516.712 52.32 519.832 53.16 522.312 54.84C524.792 56.52 526.712 58.88 528.072 61.92C529.432 64.88 530.312 68.52 530.712 72.84H532.632C533.832 68.12 535.432 64.24 537.432 61.2C539.512 58.16 541.952 55.92 544.752 54.48C547.632 53.04 550.792 52.32 554.232 52.32C557.672 52.32 560.672 53 563.232 54.36C565.872 55.72 568.072 57.76 569.832 60.48C571.592 63.12 572.912 66.48 573.792 70.56C574.672 74.56 575.112 79.2 575.112 84.48V117H557.832V86.64C557.832 82.32 557.472 78.72 556.752 75.84C556.032 72.88 554.912 70.68 553.392 69.24C551.872 67.8 549.912 67.08 547.512 67.08C544.872 67.08 542.592 68 540.672 69.84C538.752 71.6 537.232 74.04 536.112 77.16C534.992 80.28 534.392 83.84 534.312 87.84V117H517.392V87.12C517.392 82.64 516.992 78.96 516.192 76.08C515.392 73.12 514.232 70.88 512.712 69.36C511.192 67.84 509.272 67.08 506.952 67.08C504.232 67.08 501.912 68 499.992 69.84C498.072 71.6 496.592 74.08 495.552 77.28C494.512 80.48 493.952 84.04 493.872 87.96V117H476.592ZM628.307 118.68C624.307 118.68 620.827 117.92 617.867 116.4C614.907 114.8 612.507 112.52 610.667 109.56C608.827 106.6 607.547 103 606.827 98.76H604.547L604.427 117H590.147V86.04V31.2H607.427V51.84C607.427 53.76 607.307 55.84 607.067 58.08C606.827 60.24 606.467 62.48 605.987 64.8C605.587 67.12 605.147 69.52 604.667 72H607.307C608.347 68 609.747 64.56 611.507 61.68C613.347 58.72 615.667 56.48 618.467 54.96C621.267 53.36 624.587 52.56 628.427 52.56C633.707 52.56 638.267 53.92 642.107 56.64C645.947 59.36 648.907 63.2 650.987 68.16C653.147 73.12 654.227 79 654.227 85.8C654.227 92.44 653.187 98.24 651.107 103.2C649.027 108.08 646.027 111.88 642.107 114.6C638.267 117.32 633.667 118.68 628.307 118.68ZM622.187 104.52C625.067 104.52 627.547 103.76 629.627 102.24C631.707 100.64 633.307 98.4 634.427 95.52C635.547 92.64 636.107 89.28 636.107 85.44C636.107 81.6 635.547 78.28 634.427 75.48C633.387 72.68 631.867 70.48 629.867 68.88C627.867 67.28 625.427 66.48 622.547 66.48C620.627 66.48 618.867 66.84 617.267 67.56C615.667 68.28 614.267 69.28 613.067 70.56C611.867 71.76 610.827 73.16 609.947 74.76C609.067 76.28 608.427 77.88 608.027 79.56C607.627 81.24 607.427 82.84 607.427 84.36V86.64C607.427 88.48 607.707 90.48 608.267 92.64C608.827 94.72 609.707 96.68 610.907 98.52C612.187 100.28 613.747 101.72 615.587 102.84C617.427 103.96 619.627 104.52 622.187 104.52ZM666.67 117V31.2H683.71V117H666.67ZM723.128 138.84C719.928 138.84 716.648 138.52 713.288 137.88C710.008 137.32 706.888 136.4 703.928 135.12C701.048 133.92 698.568 132.36 696.488 130.44L701.408 115.68C703.968 118.32 707.168 120.28 711.008 121.56C714.848 122.92 718.648 123.6 722.408 123.6C726.648 123.6 730.168 122.72 732.968 120.96C735.848 119.28 738.008 116.68 739.448 113.16C740.968 109.56 741.848 105.08 742.088 99.72L742.808 88.8H740.168C739.368 94.08 738.048 98.4 736.208 101.76C734.448 105.12 732.168 107.6 729.368 109.2C726.648 110.72 723.408 111.48 719.648 111.48C715.088 111.48 711.248 110.32 708.128 108C705.008 105.68 702.648 102.2 701.048 97.56C699.528 92.92 698.768 87.2 698.768 80.4V54H716.048V76.2C716.048 83.64 716.888 89 718.568 92.28C720.248 95.56 722.808 97.2 726.248 97.2C728.088 97.2 729.768 96.72 731.288 95.76C732.808 94.72 734.088 93.24 735.128 91.32C736.248 89.4 737.088 87.08 737.648 84.36C738.288 81.56 738.608 78.4 738.608 74.88V54H755.888V100.32C755.888 105.36 755.448 109.96 754.568 114.12C753.688 118.2 752.368 121.76 750.608 124.8C748.928 127.92 746.768 130.52 744.128 132.6C741.488 134.68 738.408 136.24 734.888 137.28C731.448 138.32 727.528 138.84 723.128 138.84Z" fill="white"/>
</g>
</svg>
